<svg width="24" height="24" viewBox="0 0 24 24" fill="none" xmlns="http://www.w3.org/2000/svg">
<path d="M21.66 1.5H2.34C1.87608 1.5 1.5 1.87608 1.5 2.34V21.66C1.5 22.1239 1.87608 22.5 2.34 22.5H21.66C22.1239 22.5 22.5 22.1239 22.5 21.66V2.34C22.5 1.87608 22.1239 1.5 21.66 1.5Z" fill="#393939"/>
<path fill-rule="evenodd" clip-rule="evenodd" d="M12.6457 6.87609L14.9107 4.48584L22.5 12.0706V21.6601C22.5001 21.7704 22.4784 21.8797 22.4363 21.9817C22.3941 22.0836 22.3322 22.1763 22.2542 22.2543C22.1762 22.3323 22.0835 22.3942 21.9816 22.4364C21.8796 22.4785 21.7703 22.5002 21.66 22.5001H8.48699L4.44824 18.4448L12.6457 6.87609Z" fill="#393939"/>
<path d="M18.93 13.47H16.4595L14.1562 9.47998H14.3062C14.4166 9.48008 14.5258 9.45842 14.6278 9.41624C14.7298 9.37406 14.8224 9.31219 14.9004 9.23417C14.9784 9.15615 15.0403 9.06351 15.0825 8.96155C15.1247 8.85959 15.1463 8.75032 15.1462 8.63998V5.06998C15.1463 4.95964 15.1247 4.85037 15.0825 4.74841C15.0403 4.64645 14.9784 4.55381 14.9004 4.47579C14.8224 4.39777 14.7298 4.3359 14.6278 4.29372C14.5258 4.25154 14.4166 4.22988 14.3062 4.22998H9.68998C9.57964 4.22988 9.47037 4.25154 9.36841 4.29372C9.26645 4.3359 9.17381 4.39777 9.09579 4.47579C9.01777 4.55381 8.9559 4.64645 8.91372 4.74841C8.87154 4.85037 8.84988 4.95964 8.84998 5.06998V8.63998C8.84988 8.75032 8.87154 8.85959 8.91372 8.96155C8.9559 9.06351 9.01777 9.15615 9.09579 9.23417C9.17381 9.31219 9.26645 9.37406 9.36841 9.41624C9.47037 9.45842 9.57964 9.48008 9.68998 9.47998H9.84373L7.54048 13.47H5.06998C4.95964 13.4699 4.85037 13.4915 4.74841 13.5337C4.64645 13.5759 4.55381 13.6378 4.47579 13.7158C4.39777 13.7938 4.3359 13.8865 4.29372 13.9884C4.25154 14.0904 4.22988 14.1996 4.22998 14.31V17.88C4.22988 17.9903 4.25154 18.0996 4.29372 18.2016C4.3359 18.3035 4.39777 18.3962 4.47579 18.4742C4.55381 18.5522 4.64645 18.6141 4.74841 18.6562C4.85037 18.6984 4.95964 18.7201 5.06998 18.72H9.68998C9.80032 18.7201 9.90959 18.6984 10.0116 18.6562C10.1135 18.6141 10.2061 18.5522 10.2842 18.4742C10.3622 18.3962 10.4241 18.3035 10.4662 18.2016C10.5084 18.0996 10.5301 17.9903 10.53 17.88V14.31C10.5301 14.1996 10.5084 14.0904 10.4662 13.9884C10.4241 13.8865 10.3622 13.7938 10.2842 13.7158C10.2061 13.6378 10.1135 13.5759 10.0116 13.5337C9.90959 13.4915 9.80032 13.4699 9.68998 13.47H8.99473L11.2987 9.47998H12.7012L15.0045 13.47H14.31C14.1996 13.4699 14.0904 13.4915 13.9884 13.5337C13.8865 13.5759 13.7938 13.6378 13.7158 13.7158C13.6378 13.7938 13.5759 13.8865 13.5337 13.9884C13.4915 14.0904 13.4699 14.1996 13.47 14.31V17.88C13.4699 17.9903 13.4915 18.0996 13.5337 18.2016C13.5759 18.3035 13.6378 18.3962 13.7158 18.4742C13.7938 18.5522 13.8865 18.6141 13.9884 18.6562C14.0904 18.6984 14.1996 18.7201 14.31 18.72H18.93C19.0403 18.7201 19.1496 18.6984 19.2516 18.6562C19.3535 18.6141 19.4462 18.5522 19.5242 18.4742C19.6022 18.3962 19.6641 18.3035 19.7062 18.2016C19.7484 18.0996 19.7701 17.9903 19.77 17.88V14.31C19.7701 14.1996 19.7484 14.0904 19.7062 13.9884C19.6641 13.8865 19.6022 13.7938 19.5242 13.7158C19.4462 13.6378 19.3535 13.5759 19.2516 13.5337C19.1496 13.4915 19.0403 13.4699 18.93 13.47Z" fill="white"/>
</svg>
