<svg width="24" height="24" viewBox="0 0 24 24" fill="none" xmlns="http://www.w3.org/2000/svg">
<path d="M22.406 10.9001C21.5386 9.79712 20.3633 8.97646 19.029 8.54206V8.45706C19.029 4.42206 15.873 1.13306 11.982 1.13306C8.089 1.13306 4.932 4.41506 4.932 8.45806V8.55806C2.081 9.49206 0 12.2681 0 15.5421C0 19.5771 3.159 22.8671 7.05 22.8671C7.97448 22.865 8.88914 22.6773 9.73977 22.3152C10.5904 21.9531 11.3597 21.424 12.002 20.7591C12.643 21.4244 13.4113 21.9538 14.2612 22.316C15.1111 22.6781 16.0252 22.8656 16.949 22.8671C20.833 22.8671 24 19.5851 24 15.5421C23.999 13.8603 23.4382 12.2278 22.406 10.9001ZM16.95 21.0141C14.047 21.0141 11.683 18.5581 11.683 15.5401C11.6868 15.2997 11.5953 15.0677 11.4285 14.8945C11.2618 14.7214 11.0333 14.6213 10.793 14.6161C10.6736 14.6179 10.5557 14.6433 10.4462 14.6908C10.3366 14.7384 10.2375 14.8071 10.1546 14.8931C10.0717 14.979 10.0066 15.0805 9.96312 15.1917C9.91959 15.3029 9.89848 15.4217 9.901 15.5411C9.901 16.9091 10.268 18.1921 10.895 19.2891C10.4125 19.8326 9.82045 20.268 9.1578 20.5667C8.49515 20.8653 7.77684 21.0205 7.05 21.0221C4.146 21.0221 1.78 18.5651 1.78 15.5481C1.78 12.5321 4.146 10.0751 7.05 10.0751C7.68 10.0751 8.291 10.1921 8.877 10.4101C8.884 10.4101 8.89 10.4171 8.897 10.4171C9.1 10.4881 9.386 10.6271 9.475 10.7041C9.56185 10.7832 9.66402 10.8436 9.77517 10.8816C9.88632 10.9196 10.0041 10.9343 10.1212 10.925C10.2383 10.9156 10.3522 10.8823 10.4559 10.8271C10.5596 10.7719 10.6508 10.696 10.724 10.6041C10.8786 10.4167 10.9548 10.1768 10.9367 9.93457C10.9186 9.69233 10.8077 9.46644 10.627 9.30406C10.237 8.96206 9.632 8.72906 9.483 8.67406C8.70832 8.38018 7.88654 8.23006 7.058 8.23106C6.945 8.23106 6.833 8.23106 6.72 8.23806C6.84 5.32206 9.153 2.99106 11.99 2.99106C14.893 2.99106 17.257 5.44706 17.257 8.46506C17.2597 9.32987 17.0609 10.1834 16.6764 10.9581C16.292 11.7327 15.7324 12.4072 15.042 12.9281C14.8501 13.0749 14.7215 13.2894 14.6824 13.5279C14.6434 13.7664 14.6969 14.0107 14.832 14.2111C15.003 14.4611 15.282 14.6011 15.559 14.6011C15.7451 14.6011 15.9261 14.5407 16.075 14.4291C17.4048 13.4323 18.3593 12.0158 18.784 10.4091C20.819 11.1941 22.233 13.2381 22.233 15.5481C22.226 18.5581 19.862 21.0141 16.95 21.0141Z" fill="#393939"/>
</svg>
